<svg width="80" height="80" viewBox="0 0 80 80" fill="none"
    xmlns="http://www.w3.org/2000/svg">
    <g id="image">
        <path id="Vector"
            d="M70 63.3333V16.6667C70 13 67 10 63.3333 10H16.6667C13 10 10 13 10 16.6667V63.3333C10 67 13 70 16.6667 70H63.3333C67 70 70 67 70 63.3333ZM29.6667 46.6L36.6667 55.0333L47 41.7333C47.6667 40.8667 49 40.8667 49.6667 41.7667L61.3667 57.3667C62.2 58.4667 61.4 60.0333 60.0333 60.0333H20.0667C18.6667 60.0333 17.9 58.4333 18.7667 57.3333L27.0667 46.6667C27.7 45.8 28.9667 45.7667 29.6667 46.6Z"
            fill="#CBD0C8" />
    </g>
</svg>
